<svg width="200" height="200" viewBox="0 0 200 200" fill="none" xmlns="http://www.w3.org/2000/svg">
<path d="M95.6841 8.8835C98.3639 7.37607 101.636 7.37607 104.316 8.8835L130.726 23.7392C133.498 25.2985 135.214 28.2316 135.214 31.4121V60.7301C135.214 63.9105 133.498 66.8437 130.726 68.4029L104.316 83.2586C101.636 84.7661 98.364 84.7661 95.6841 83.2586L69.2739 68.4029C66.5019 66.8437 64.7864 63.9105 64.7864 60.7301V31.4121C64.7864 28.2316 66.5019 25.2985 69.2739 23.7392L95.6841 8.8835Z" fill="#55BC8A"/>
<path d="M38.462 96.9175C41.1418 95.4101 44.414 95.4101 47.0939 96.9175L73.5041 111.773C76.2761 113.332 77.9915 116.266 77.9915 119.446V148.764C77.9915 151.945 76.2761 154.878 73.5041 156.437L47.0939 171.293C44.414 172.8 41.1418 172.8 38.462 171.293L12.0518 156.437C9.27978 154.878 7.56433 151.945 7.56433 148.764V119.446C7.56433 116.266 9.27978 113.332 12.0518 111.773L38.462 96.9175Z" fill="#55BC8A"/>
<path d="M161.538 96.9175C158.858 95.4101 155.586 95.4101 152.906 96.9175L126.496 111.773C123.724 113.332 122.009 116.266 122.009 119.446V148.764C122.009 151.945 123.724 154.878 126.496 156.437L152.906 171.293C155.586 172.8 158.858 172.8 161.538 171.293L187.948 156.437C190.72 154.878 192.436 151.945 192.436 148.764V119.446C192.436 116.266 190.72 113.332 187.948 111.773L161.538 96.9175Z" fill="#55BC8A"/>
<path d="M161.538 96.9177C158.858 95.4103 155.586 95.4103 152.906 96.9177L126.496 111.773C123.724 113.333 122.008 116.266 122.008 119.446V148.764C122.008 151.945 123.724 154.878 126.496 156.437L152.906 171.293C155.586 172.8 158.858 172.8 161.538 171.293L187.948 156.437C190.72 154.878 192.436 151.945 192.436 148.764V119.446C192.436 116.266 190.72 113.333 187.948 111.773L161.538 96.9177Z" fill="#55BC8A"/>
<path d="M38.462 96.9177C41.1418 95.4103 44.414 95.4103 47.0939 96.9177L73.5041 111.773C76.2761 113.333 77.9915 116.266 77.9915 119.446V148.764C77.9915 151.945 76.2761 154.878 73.5041 156.437L47.0939 171.293C44.414 172.8 41.1418 172.8 38.462 171.293L12.0518 156.437C9.27978 154.878 7.56433 151.945 7.56433 148.764V119.446C7.56433 116.266 9.27978 113.333 12.0518 111.773L38.462 96.9177Z" fill="#55BC8A"/>
<path d="M95.6844 8.8835C98.3642 7.37607 101.636 7.37607 104.316 8.8835L130.727 23.7392C133.498 25.2985 135.214 28.2316 135.214 31.4121V60.7301C135.214 63.9105 133.499 66.8437 130.727 68.4029L104.316 83.2586C101.636 84.7661 98.3643 84.7661 95.6844 83.2586L69.2742 68.4029C66.5022 66.8437 64.7867 63.9105 64.7867 60.7301V31.4121C64.7867 28.2316 66.5022 25.2985 69.2742 23.7392L95.6844 8.8835Z" fill="#55BC8A"/>
<path d="M51.5822 46.3135C51.5822 43.1064 48.1329 41.0826 45.3333 42.6471L26.4601 53.1939C21.588 55.9165 18.5695 61.0612 18.5695 66.6424V85.7755C18.5695 88.9878 22.0288 91.011 24.8286 89.4361L29.6336 86.7333C30.9561 85.9894 31.7746 84.59 31.7746 83.0727V66.6424C31.7746 65.8451 32.2058 65.1101 32.9018 64.7212L49.431 55.4843C50.7593 54.742 51.5822 53.3394 51.5822 51.8179V46.3135Z" fill="#324558"/>
<path d="M150.571 55.4843C149.243 54.742 148.42 53.3394 148.42 51.8179V46.3135C148.42 43.1064 151.869 41.0826 154.669 42.6471L173.542 53.1939C178.414 55.9165 181.432 61.0612 181.432 66.6424V85.7755C181.432 88.9878 177.973 91.011 175.173 89.4361L170.368 86.7333C169.046 85.9894 168.227 84.59 168.227 83.0727V66.6424C168.227 65.8451 167.796 65.1101 167.1 64.7212L150.571 55.4843Z" fill="#324558"/>
<path d="M101.075 178.762L118.17 169.209C119.447 168.495 121.003 168.498 122.278 169.215L127.187 171.976C130.046 173.584 130.04 177.703 127.176 179.303L107.516 190.289C102.846 192.899 97.1559 192.899 92.4856 190.289L72.8255 179.303C69.9619 177.703 69.9561 173.584 72.8153 171.976L77.7241 169.215C78.999 168.498 80.5552 168.495 81.8321 169.209L98.9273 178.762C99.5945 179.135 100.407 179.135 101.075 178.762Z" fill="#324558"/>
<path d="M99.9998 97.973L82.6393 88.5036C80.6029 87.3929 78.0516 88.1432 76.9409 90.1796L74.64 94.3979C73.5292 96.4343 74.2796 98.9856 76.316 100.096L93.3972 109.413V145.311C93.3972 147.63 95.2776 149.511 97.5972 149.511H102.402C104.722 149.511 106.602 147.63 106.602 145.311V109.413L123.684 100.096C125.72 98.9856 126.47 96.4343 125.36 94.3979L123.059 90.1796C121.948 88.1432 119.397 87.3929 117.36 88.5036L99.9998 97.973Z" fill="#324558"/>
<path fill-rule="evenodd" clip-rule="evenodd" d="M100.001 84.3892C101.489 84.3893 102.977 84.0124 104.317 83.2586L130.728 68.4029C133.5 66.8437 135.215 63.9105 135.215 60.7301V31.4121C135.215 28.2316 133.5 25.2985 130.728 23.7392L104.317 8.8835C102.977 8.12972 101.489 7.75286 100.001 7.75293V84.3892Z" fill="white" fill-opacity="0.4"/>
<path fill-rule="evenodd" clip-rule="evenodd" d="M42.7781 172.423C44.2662 172.423 45.7544 172.047 47.0944 171.293L73.5046 156.437C76.2766 154.878 77.9921 151.945 77.9921 148.764V119.446C77.9921 116.266 76.2766 113.333 73.5046 111.773L47.0944 96.9177C45.7544 96.1639 44.2662 95.787 42.7781 95.7871V172.423Z" fill="white" fill-opacity="0.4"/>
<path fill-rule="evenodd" clip-rule="evenodd" d="M157.222 172.423C158.71 172.423 160.198 172.047 161.538 171.293L187.948 156.437C190.72 154.878 192.436 151.945 192.436 148.764V119.446C192.436 116.266 190.72 113.333 187.948 111.773L161.538 96.9177C160.198 96.1639 158.71 95.787 157.222 95.7871V172.423Z" fill="white" fill-opacity="0.4"/>
</svg>
